<svg xmlns="http://www.w3.org/2000/svg" viewBox="0 0 900 460">
  <defs>
    <linearGradient id="dbg8" x1="0%" y1="0%" x2="0%" y2="100%">
      <stop offset="0%" style="stop-color:#f8fafc"/>
      <stop offset="100%" style="stop-color:#f1f5f9"/>
    </linearGradient>
  </defs>
  <rect width="900" height="460" fill="url(#dbg8)" rx="12"/>
  <text x="450" y="32" text-anchor="middle" font-family="sans-serif" font-size="17" font-weight="bold" fill="#1e293b">Kell-e műszaki ellenőr? – Döntési fa</text>
  <!-- Start -->
  <rect x="325" y="55" width="250" height="40" rx="20" fill="#1e293b"/>
  <text x="450" y="80" text-anchor="middle" font-family="sans-serif" font-size="13" font-weight="bold" fill="#fff">Építkezni készülsz?</text>
  <!-- Nyíl lefelé -->
  <line x1="450" y1="95" x2="450" y2="115" stroke="#64748b" stroke-width="1.5"/>
  <polygon points="450,120 445,112 455,112" fill="#64748b"/>
  <!-- Kérdés 1: Kötelező? -->
  <rect x="275" y="125" width="350" height="45" rx="8" fill="#fff" stroke="#3b82f6" stroke-width="2"/>
  <text x="450" y="148" text-anchor="middle" font-family="sans-serif" font-size="12" fill="#1e293b">Több fővállalkozó / közbeszerzés /</text>
  <text x="450" y="163" text-anchor="middle" font-family="sans-serif" font-size="12" fill="#1e293b">műemlék / fedezetkezelő?</text>
  <!-- Igen bal -->
  <line x1="275" y1="148" x2="180" y2="148" stroke="#22c55e" stroke-width="1.5"/>
  <line x1="180" y1="148" x2="180" y2="190" stroke="#22c55e" stroke-width="1.5"/>
  <polygon points="180,195 175,187 185,187" fill="#22c55e"/>
  <text x="220" y="142" font-family="sans-serif" font-size="11" fill="#22c55e" font-weight="600">IGEN</text>
  <rect x="90" y="198" width="180" height="35" rx="8" fill="#22c55e"/>
  <text x="180" y="220" text-anchor="middle" font-family="sans-serif" font-size="12" font-weight="bold" fill="#fff">KÖTELEZŐ az ME</text>
  <!-- Nem jobb -->
  <line x1="625" y1="148" x2="720" y2="148" stroke="#f59e0b" stroke-width="1.5"/>
  <line x1="720" y1="148" x2="720" y2="190" stroke="#f59e0b" stroke-width="1.5"/>
  <polygon points="720,195 715,187 725,187" fill="#f59e0b"/>
  <text x="670" y="142" font-family="sans-serif" font-size="11" fill="#f59e0b" font-weight="600">NEM</text>
  <!-- Kérdés 2 -->
  <rect x="595" y="198" width="250" height="40" rx="8" fill="#fff" stroke="#f59e0b" stroke-width="2"/>
  <text x="720" y="222" text-anchor="middle" font-family="sans-serif" font-size="12" fill="#1e293b">Első házad? / 30M+ Ft?</text>
  <!-- Igen -->
  <line x1="595" y1="218" x2="500" y2="218" stroke="#22c55e" stroke-width="1.5"/>
  <line x1="500" y1="218" x2="500" y2="265" stroke="#22c55e" stroke-width="1.5"/>
  <polygon points="500,270 495,262 505,262" fill="#22c55e"/>
  <text x="540" y="212" font-family="sans-serif" font-size="11" fill="#22c55e" font-weight="600">IGEN</text>
  <rect x="400" y="273" width="200" height="35" rx="8" fill="#f59e0b"/>
  <text x="500" y="295" text-anchor="middle" font-family="sans-serif" font-size="12" font-weight="bold" fill="#fff">ERŐSEN AJÁNLOTT</text>
  <!-- Nem -->
  <line x1="845" y1="218" x2="855" y2="218" stroke="#64748b" stroke-width="1.5"/>
  <line x1="855" y1="218" x2="855" y2="265" stroke="#64748b" stroke-width="1.5"/>
  <polygon points="855,270 850,262 860,262" fill="#64748b"/>
  <text x="860" y="248" font-family="sans-serif" font-size="11" fill="#64748b" font-weight="600">NEM</text>
  <rect x="760" y="273" width="180" height="35" rx="8" fill="#fff" stroke="#64748b" stroke-width="2"/>
  <text x="850" y="295" text-anchor="middle" font-family="sans-serif" font-size="12" fill="#374151">Alkalmi ellenőrzés</text>
  <!-- ROI sáv -->
  <rect x="50" y="335" width="800" height="100" rx="10" fill="#fff" stroke="#e2e8f0" stroke-width="1"/>
  <text x="450" y="360" text-anchor="middle" font-family="sans-serif" font-size="14" font-weight="bold" fill="#1e293b">Megéri? – A számok</text>
  <g transform="translate(150,380)">
    <text x="0" y="0" font-family="sans-serif" font-size="22" font-weight="bold" fill="#22c55e">500e Ft</text>
    <text x="0" y="18" font-family="sans-serif" font-size="11" fill="#64748b">átlagos ME díj</text>
  </g>
  <text x="350" y="390" text-anchor="middle" font-family="sans-serif" font-size="24" fill="#64748b">→</text>
  <g transform="translate(430,380)">
    <text x="0" y="0" font-family="sans-serif" font-size="22" font-weight="bold" fill="#f59e0b">3,8M Ft</text>
    <text x="0" y="18" font-family="sans-serif" font-size="11" fill="#64748b">átlagos megtakarítás</text>
  </g>
  <text x="630" y="390" text-anchor="middle" font-family="sans-serif" font-size="24" fill="#64748b">=</text>
  <g transform="translate(700,380)">
    <text x="0" y="0" font-family="sans-serif" font-size="22" font-weight="bold" fill="#ef4444">7-8×</text>
    <text x="0" y="18" font-family="sans-serif" font-size="11" fill="#64748b">megtérülés</text>
  </g>
  <!-- Brand -->
  <text x="450" y="455" text-anchor="middle" font-family="sans-serif" font-size="11" fill="#94a3b8">hazepitesikalauz.hu</text>
</svg>