<svg xmlns="http://www.w3.org/2000/svg" viewBox="0 0 1200 630">
  <rect width="1200" height="630" fill="#14241a"/>
  <defs><pattern id="gf" width="60" height="60" patternUnits="userSpaceOnUse"><path d="M 60 0 L 0 0 0 60" fill="none" stroke="#1e3a28" stroke-width="0.5"/></pattern></defs>
  <rect width="1200" height="630" fill="url(#gf)" opacity="0.4"/>

  <!-- Wall layer cross-section -->
  <g>
    <rect x="150" y="180" width="40" height="230" fill="#d4a373"/>
    <text x="170" y="430" text-anchor="middle" font-family="sans-serif" font-size="11" fill="#aaa" transform="rotate(0 170 430)">gipszkarton</text>
    <rect x="190" y="180" width="35" height="230" fill="#b5895a"/>
    <rect x="225" y="180" width="120" height="230" fill="#c9a86a"/>
    <text x="285" y="300" text-anchor="middle" font-family="sans-serif" font-size="14" fill="#3a2a14" font-weight="bold">befujt</text>
    <text x="285" y="320" text-anchor="middle" font-family="sans-serif" font-size="14" fill="#3a2a14" font-weight="bold">farost</text>
    <text x="285" y="340" text-anchor="middle" font-family="sans-serif" font-size="12" fill="#5a4020">240 mm</text>
    <rect x="345" y="180" width="40" height="230" fill="#b5895a"/>
    <rect x="385" y="180" width="30" height="230" fill="#8a6a3a"/>
  </g>

  <!-- Sun -->
  <circle cx="500" cy="240" r="35" fill="#f1c40f"/>
  <g stroke="#f1c40f" stroke-width="3">
    <line x1="500" y1="180" x2="500" y2="160"/>
    <line x1="545" y1="200" x2="560" y2="185"/>
    <line x1="560" y1="240" x2="585" y2="240"/>
  </g>
  <text x="500" y="320" text-anchor="middle" font-family="sans-serif" font-size="14" fill="#f1c40f">deli hoseg</text>

  <!-- Phase shift stat -->
  <rect x="640" y="200" width="440" height="100" rx="12" fill="#1e3a28" stroke="#2ecc71" stroke-width="2"/>
  <text x="860" y="245" text-anchor="middle" font-family="sans-serif" font-size="40" font-weight="bold" fill="#2ecc71">16-20 ora</text>
  <text x="860" y="278" text-anchor="middle" font-family="sans-serif" font-size="17" fill="#ccc">hofaziseltolas (atlag haz: 5-10 ora)</text>

  <!-- Bottom stat boxes -->
  <rect x="150" y="450" width="200" height="65" rx="8" fill="#1e3a28" stroke="#27ae60" stroke-width="1"/>
  <text x="250" y="478" text-anchor="middle" font-family="sans-serif" font-size="18" fill="#27ae60" font-weight="bold">U=0,11</text>
  <text x="250" y="500" text-anchor="middle" font-family="sans-serif" font-size="12" fill="#ccc">W/m2K kulso fal</text>

  <rect x="370" y="450" width="200" height="65" rx="8" fill="#1e3a28" stroke="#3498db" stroke-width="1"/>
  <text x="470" y="478" text-anchor="middle" font-family="sans-serif" font-size="18" fill="#5dade2" font-weight="bold">para-</text>
  <text x="470" y="500" text-anchor="middle" font-family="sans-serif" font-size="12" fill="#ccc">atereszto, lelegzo</text>

  <rect x="590" y="450" width="200" height="65" rx="8" fill="#1e3a28" stroke="#2ecc71" stroke-width="1"/>
  <text x="690" y="478" text-anchor="middle" font-family="sans-serif" font-size="18" fill="#2ecc71" font-weight="bold">CO2-neg.</text>
  <text x="690" y="500" text-anchor="middle" font-family="sans-serif" font-size="12" fill="#ccc">eletciklus</text>

  <rect x="810" y="450" width="270" height="65" rx="8" fill="#1e3a28" stroke="#f39c12" stroke-width="1"/>
  <text x="945" y="478" text-anchor="middle" font-family="sans-serif" font-size="18" fill="#f39c12" font-weight="bold">2100 J/kgK</text>
  <text x="945" y="500" text-anchor="middle" font-family="sans-serif" font-size="12" fill="#ccc">fajho (EPS: ~1450)</text>

  <text x="600" y="60" text-anchor="middle" font-family="sans-serif" font-size="38" font-weight="bold" fill="white">Farost hoszigeteles 2026</text>
  <text x="600" y="100" text-anchor="middle" font-family="sans-serif" font-size="22" fill="#bbccb5">Miert mas, mint a kozetgyapot es az EPS?</text>
  <text x="600" y="618" text-anchor="middle" font-family="sans-serif" font-size="16" fill="#4a6a55">hazepitesikalauz.hu</text>
</svg>
