<svg xmlns="http://www.w3.org/2000/svg" viewBox="0 0 1200 630">
  <rect width="1200" height="630" fill="#1a1a2e"/>
  <defs>
    <pattern id="g2" width="60" height="60" patternUnits="userSpaceOnUse">
      <path d="M 60 0 L 0 0 0 60" fill="none" stroke="#2a2a4e" stroke-width="0.5"/>
    </pattern>
  </defs>
  <rect width="1200" height="630" fill="url(#g2)"/>

  <!-- Három ablak típus -->
  <!-- Műanyag -->
  <g transform="translate(120, 170)">
    <rect x="0" y="0" width="200" height="250" fill="none" stroke="#60a5fa" stroke-width="3" rx="4"/>
    <line x1="100" y1="0" x2="100" y2="250" stroke="#60a5fa" stroke-width="2"/>
    <line x1="0" y1="125" x2="200" y2="125" stroke="#60a5fa" stroke-width="2"/>
    <!-- Üveg -->
    <rect x="8" y="8" width="84" height="109" fill="#1e3a5f" rx="2" opacity="0.5"/>
    <rect x="108" y="8" width="84" height="109" fill="#1e3a5f" rx="2" opacity="0.5"/>
    <rect x="8" y="133" width="84" height="109" fill="#1e3a5f" rx="2" opacity="0.5"/>
    <rect x="108" y="133" width="84" height="109" fill="#1e3a5f" rx="2" opacity="0.5"/>
    <!-- Kilincs -->
    <rect x="88" y="118" width="24" height="6" fill="#60a5fa" rx="2"/>
    <text x="100" y="290" text-anchor="middle" font-family="sans-serif" font-size="18" font-weight="bold" fill="#93c5fd">MŰANYAG</text>
    <text x="100" y="315" text-anchor="middle" font-family="sans-serif" font-size="14" fill="#94a3b8">80-140e Ft/db</text>
    <text x="100" y="338" text-anchor="middle" font-family="sans-serif" font-size="13" fill="#64748b">Uw 0,8-1,0</text>
  </g>

  <!-- Fa -->
  <g transform="translate(500, 170)">
    <rect x="0" y="0" width="200" height="250" fill="none" stroke="#f59e0b" stroke-width="3" rx="4"/>
    <line x1="100" y1="0" x2="100" y2="250" stroke="#f59e0b" stroke-width="2"/>
    <line x1="0" y1="125" x2="200" y2="125" stroke="#f59e0b" stroke-width="2"/>
    <rect x="8" y="8" width="84" height="109" fill="#3b2a0f" rx="2" opacity="0.5"/>
    <rect x="108" y="8" width="84" height="109" fill="#3b2a0f" rx="2" opacity="0.5"/>
    <rect x="8" y="133" width="84" height="109" fill="#3b2a0f" rx="2" opacity="0.5"/>
    <rect x="108" y="133" width="84" height="109" fill="#3b2a0f" rx="2" opacity="0.5"/>
    <rect x="88" y="118" width="24" height="6" fill="#f59e0b" rx="2"/>
    <text x="100" y="290" text-anchor="middle" font-family="sans-serif" font-size="18" font-weight="bold" fill="#fbbf24">FA</text>
    <text x="100" y="315" text-anchor="middle" font-family="sans-serif" font-size="14" fill="#94a3b8">130-200e Ft/db</text>
    <text x="100" y="338" text-anchor="middle" font-family="sans-serif" font-size="13" fill="#64748b">Uw 0,7-0,9</text>
  </g>

  <!-- Alumínium -->
  <g transform="translate(880, 170)">
    <rect x="0" y="0" width="200" height="250" fill="none" stroke="#a78bfa" stroke-width="3" rx="4"/>
    <line x1="100" y1="0" x2="100" y2="250" stroke="#a78bfa" stroke-width="2"/>
    <line x1="0" y1="125" x2="200" y2="125" stroke="#a78bfa" stroke-width="2"/>
    <rect x="8" y="8" width="84" height="109" fill="#2d1f5e" rx="2" opacity="0.5"/>
    <rect x="108" y="8" width="84" height="109" fill="#2d1f5e" rx="2" opacity="0.5"/>
    <rect x="8" y="133" width="84" height="109" fill="#2d1f5e" rx="2" opacity="0.5"/>
    <rect x="108" y="133" width="84" height="109" fill="#2d1f5e" rx="2" opacity="0.5"/>
    <rect x="88" y="118" width="24" height="6" fill="#a78bfa" rx="2"/>
    <text x="100" y="290" text-anchor="middle" font-family="sans-serif" font-size="18" font-weight="bold" fill="#c4b5fd">ALUMÍNIUM</text>
    <text x="100" y="315" text-anchor="middle" font-family="sans-serif" font-size="14" fill="#94a3b8">160-250e Ft/db</text>
    <text x="100" y="338" text-anchor="middle" font-family="sans-serif" font-size="13" fill="#64748b">Uw 0,8-1,1</text>
  </g>

  <text x="600" y="60" text-anchor="middle" font-family="sans-serif" font-size="38" font-weight="bold" fill="#f1f5f9">Nyílászárók választása</text>
  <text x="600" y="100" text-anchor="middle" font-family="sans-serif" font-size="20" fill="#94a3b8">Műanyag · Fa · Alumínium · U-értékek · 2026</text>

  <text x="600" y="600" text-anchor="middle" font-family="sans-serif" font-size="18" fill="#6366f1">hazepitesikalauz.hu</text>
</svg>