<svg xmlns="http://www.w3.org/2000/svg" viewBox="0 0 1200 630">
  <defs>
    <linearGradient id="bgBv" x1="0%" y1="0%" x2="100%" y2="100%">
      <stop offset="0%" style="stop-color:#1e3a5f"/>
      <stop offset="100%" style="stop-color:#14274e"/>
    </linearGradient>
  </defs>
  <rect width="1200" height="630" fill="url(#bgBv)"/>

  <!-- Háttér dekoráció -->
  <g opacity="0.04">
    <circle cx="150" cy="120" r="90" fill="#fff"/>
    <circle cx="1050" cy="500" r="130" fill="#fff"/>
    <circle cx="950" cy="80" r="50" fill="#fff"/>
  </g>

  <!-- Baba ikon (középen fent) -->
  <g transform="translate(600,155)">
    <!-- Bölcső -->
    <ellipse cx="0" cy="30" rx="55" ry="35" fill="none" stroke="#f59e0b" stroke-width="2.5"/>
    <path d="M-55,30 Q-65,30 -60,15" fill="none" stroke="#f59e0b" stroke-width="2.5"/>
    <path d="M55,30 Q65,30 60,15" fill="none" stroke="#f59e0b" stroke-width="2.5"/>
    <!-- Baba fej -->
    <circle cx="0" cy="5" r="16" fill="none" stroke="#fbbf24" stroke-width="2"/>
    <!-- Szív -->
    <g transform="translate(0,-35)">
      <path d="M0,10 C0,10 -12,-3 -12,-9 C-12,-14 -6,-17 0,-9 C6,-17 12,-14 12,-9 C12,-3 0,10 0,10Z" fill="#ef4444" opacity="0.7"/>
    </g>
  </g>

  <!-- Pénz ikonok (bal és jobb oldal) -->
  <g transform="translate(310,200)">
    <rect x="-55" y="-18" width="110" height="36" rx="18" fill="rgba(34,197,94,0.15)" stroke="#22c55e" stroke-width="1.5"/>
    <text x="0" y="6" text-anchor="middle" font-family="sans-serif" font-size="16" font-weight="bold" fill="#22c55e">11M Ft</text>
  </g>
  <g transform="translate(890,200)">
    <rect x="-55" y="-18" width="110" height="36" rx="18" fill="rgba(251,191,36,0.15)" stroke="#fbbf24" stroke-width="1.5"/>
    <text x="0" y="6" text-anchor="middle" font-family="sans-serif" font-size="15" font-weight="bold" fill="#fbbf24">0% kamat</text>
  </g>

  <!-- Vonalak az ikonoktól a központi elemhez -->
  <line x1="365" y1="200" x2="545" y2="170" stroke="#22c55e" stroke-width="1" opacity="0.3"/>
  <line x1="835" y1="200" x2="655" y2="170" stroke="#fbbf24" stroke-width="1" opacity="0.3"/>

  <!-- Cím -->
  <text x="600" y="320" text-anchor="middle" font-family="sans-serif" font-size="42" font-weight="bold" fill="#ffffff">Babaváró hitel 2026</text>
  <text x="600" y="370" text-anchor="middle" font-family="sans-serif" font-size="22" fill="#94a3b8">Feltételek, összegek és a valós buktatók</text>

  <!-- Badge: 2026 -->
  <g transform="translate(600,420)">
    <rect x="-70" y="-16" width="140" height="32" rx="16" fill="rgba(239,68,68,0.15)" stroke="#ef4444" stroke-width="1"/>
    <text x="0" y="6" text-anchor="middle" font-family="sans-serif" font-size="14" font-weight="bold" fill="#ef4444">frissítve: 2026</text>
  </g>

  <!-- Alsó elválasztó -->
  <line x1="100" y1="520" x2="1100" y2="520" stroke="#334155" stroke-width="1"/>

  <!-- Brand -->
  <text x="600" y="580" text-anchor="middle" font-family="sans-serif" font-size="18" fill="#64748b">hazepitesikalauz.hu</text>
</svg>