<svg xmlns="http://www.w3.org/2000/svg" viewBox="0 0 1200 630">
  <defs>
    <linearGradient id="bg2" x1="0%" y1="0%" x2="100%" y2="100%">
      <stop offset="0%" style="stop-color:#1e3a5f"/>
      <stop offset="100%" style="stop-color:#0f2744"/>
    </linearGradient>
  </defs>
  <rect width="1200" height="630" fill="url(#bg2)"/>
  <!-- Háttér elemek -->
  <g opacity="0.05">
    <circle cx="200" cy="150" r="80" fill="#fff"/>
    <circle cx="1000" cy="450" r="120" fill="#fff"/>
    <circle cx="900" cy="100" r="40" fill="#fff"/>
  </g>
  <!-- Ház + család ikon -->
  <g transform="translate(600,170)">
    <!-- Ház -->
    <polygon points="-80,25 0,-50 80,25" fill="none" stroke="#22c55e" stroke-width="3"/>
    <rect x="-55" y="25" width="110" height="75" fill="none" stroke="#22c55e" stroke-width="3" rx="3"/>
    <rect x="-18" y="50" width="36" height="50" fill="none" stroke="#22c55e" stroke-width="2" rx="2"/>
    <!-- Szív / család -->
    <g transform="translate(0,-75)">
      <path d="M0,12 C0,12 -15,-5 -15,-12 C-15,-18 -8,-22 0,-12 C8,-22 15,-18 15,-12 C15,-5 0,12 0,12Z" fill="#ef4444" opacity="0.8"/>
    </g>
  </g>
  <!-- Összeg kijelzők -->
  <g transform="translate(320,260)">
    <rect x="-60" y="-20" width="120" height="40" rx="20" fill="rgba(34,197,94,0.15)" stroke="#22c55e" stroke-width="1.5"/>
    <text x="0" y="6" text-anchor="middle" font-family="sans-serif" font-size="16" font-weight="bold" fill="#22c55e">15M Ft</text>
  </g>
  <g transform="translate(600,290)">
    <rect x="-60" y="-20" width="120" height="40" rx="20" fill="rgba(34,197,94,0.2)" stroke="#22c55e" stroke-width="1.5"/>
    <text x="0" y="6" text-anchor="middle" font-family="sans-serif" font-size="16" font-weight="bold" fill="#22c55e">30M Ft</text>
  </g>
  <g transform="translate(880,260)">
    <rect x="-60" y="-20" width="120" height="40" rx="20" fill="rgba(34,197,94,0.25)" stroke="#22c55e" stroke-width="1.5"/>
    <text x="0" y="6" text-anchor="middle" font-family="sans-serif" font-size="16" font-weight="bold" fill="#22c55e">50M Ft</text>
  </g>
  <!-- Gyerek ikonok -->
  <text x="320" y="310" text-anchor="middle" font-family="sans-serif" font-size="13" fill="#94a3b8">1 gyerek</text>
  <text x="600" y="340" text-anchor="middle" font-family="sans-serif" font-size="13" fill="#94a3b8">2 gyerek</text>
  <text x="880" y="310" text-anchor="middle" font-family="sans-serif" font-size="13" fill="#94a3b8">3 gyerek</text>
  <!-- Cím -->
  <text x="600" y="410" text-anchor="middle" font-family="sans-serif" font-size="44" font-weight="bold" fill="#ffffff">CSOK Plusz 2026</text>
  <text x="600" y="455" text-anchor="middle" font-family="sans-serif" font-size="24" fill="#94a3b8">feltételek, összegek, buktatók</text>
  <!-- Kamat badge -->
  <rect x="485" y="480" width="230" height="36" rx="18" fill="rgba(34,197,94,0.2)" stroke="#22c55e" stroke-width="1"/>
  <text x="600" y="504" text-anchor="middle" font-family="sans-serif" font-size="18" font-weight="600" fill="#22c55e">fix 3% kamat · max 25 év</text>
  <!-- Brand -->
  <text x="600" y="590" text-anchor="middle" font-family="sans-serif" font-size="18" fill="#475569">hazepitesikalauz.hu</text>
</svg>
