<svg xmlns="http://www.w3.org/2000/svg" viewBox="0 0 1200 630">
  <defs>
    <linearGradient id="bg3" x1="0%" y1="0%" x2="100%" y2="100%">
      <stop offset="0%" style="stop-color:#14532d"/>
      <stop offset="100%" style="stop-color:#052e16"/>
    </linearGradient>
  </defs>
  <rect width="1200" height="630" fill="url(#bg3)"/>
  <!-- Háttér domborzat -->
  <path d="M0,400 Q200,340 400,380 Q600,420 800,360 Q1000,300 1200,350 L1200,630 L0,630Z" fill="rgba(34,197,94,0.08)"/>
  <path d="M0,440 Q300,400 500,430 Q700,460 900,410 Q1100,380 1200,400 L1200,630 L0,630Z" fill="rgba(34,197,94,0.05)"/>
  <!-- Kis ház ikon -->
  <g transform="translate(600,175)">
    <polygon points="-70,20 0,-45 70,20" fill="none" stroke="#22c55e" stroke-width="2.5"/>
    <rect x="-48" y="20" width="96" height="65" fill="none" stroke="#22c55e" stroke-width="2.5" rx="2"/>
    <rect x="-15" y="40" width="30" height="45" fill="none" stroke="#22c55e" stroke-width="2" rx="2"/>
    <!-- Kémény -->
    <rect x="25" y="-15" width="12" height="30" fill="none" stroke="#22c55e" stroke-width="2"/>
    <!-- Ablak -->
    <rect x="-40" y="35" width="18" height="18" fill="none" stroke="#22c55e" stroke-width="1.5" rx="1"/>
    <rect x="22" y="35" width="18" height="18" fill="none" stroke="#22c55e" stroke-width="1.5" rx="1"/>
  </g>
  <!-- Fák mellette -->
  <g transform="translate(430,210)" opacity="0.6">
    <line x1="0" y1="0" x2="0" y2="45" stroke="#22c55e" stroke-width="2"/>
    <circle cx="0" cy="-5" r="18" fill="none" stroke="#22c55e" stroke-width="1.5"/>
  </g>
  <g transform="translate(770,200)" opacity="0.6">
    <line x1="0" y1="0" x2="0" y2="50" stroke="#22c55e" stroke-width="2"/>
    <circle cx="0" cy="-5" r="20" fill="none" stroke="#22c55e" stroke-width="1.5"/>
  </g>
  <!-- Összeg badge-k -->
  <rect x="250" y="280" width="130" height="36" rx="18" fill="rgba(34,197,94,0.2)" stroke="#22c55e" stroke-width="1"/>
  <text x="315" y="304" text-anchor="middle" font-family="sans-serif" font-size="15" font-weight="bold" fill="#22c55e">1M Ft</text>
  <rect x="530" y="300" width="130" height="36" rx="18" fill="rgba(34,197,94,0.25)" stroke="#22c55e" stroke-width="1"/>
  <text x="595" y="324" text-anchor="middle" font-family="sans-serif" font-size="15" font-weight="bold" fill="#22c55e">4M Ft</text>
  <rect x="810" y="280" width="140" height="36" rx="18" fill="rgba(34,197,94,0.3)" stroke="#22c55e" stroke-width="1.5"/>
  <text x="880" y="304" text-anchor="middle" font-family="sans-serif" font-size="16" font-weight="bold" fill="#4ade80">15M Ft</text>
  <!-- Cím -->
  <text x="600" y="400" text-anchor="middle" font-family="sans-serif" font-size="44" font-weight="bold" fill="#ffffff">Falusi CSOK 2026</text>
  <text x="600" y="445" text-anchor="middle" font-family="sans-serif" font-size="22" fill="#86efac">vissza nem térítendő támogatás</text>
  <!-- Alcím -->
  <text x="600" y="490" text-anchor="middle" font-family="sans-serif" font-size="18" fill="#6ee7b7">2631 településen · építés, vásárlás, felújítás</text>
  <!-- Brand -->
  <text x="600" y="590" text-anchor="middle" font-family="sans-serif" font-size="18" fill="#365314">hazepitesikalauz.hu</text>
</svg>
