<svg xmlns="http://www.w3.org/2000/svg" viewBox="0 0 900 450">
  <defs>
    <linearGradient id="bgD2" x1="0%" y1="0%" x2="100%" y2="100%">
      <stop offset="0%" style="stop-color:#f8fafc"/>
      <stop offset="100%" style="stop-color:#f1f5f9"/>
    </linearGradient>
  </defs>
  <rect width="900" height="450" fill="url(#bgD2)" rx="12"/>
  <text x="450" y="38" text-anchor="middle" font-family="sans-serif" font-size="18" font-weight="bold" fill="#1e293b">Anyagár-változás 2020-2026 (%-os emelkedés)</text>
  <!-- Tengelyek -->
  <line x1="120" y1="70" x2="120" y2="370" stroke="#cbd5e1" stroke-width="1"/>
  <line x1="120" y1="370" x2="850" y2="370" stroke="#cbd5e1" stroke-width="1"/>
  <!-- Y tengely jelölések -->
  <text x="110" y="374" text-anchor="end" font-family="sans-serif" font-size="11" fill="#94a3b8">0%</text>
  <text x="110" y="314" text-anchor="end" font-family="sans-serif" font-size="11" fill="#94a3b8">30%</text>
  <line x1="120" y1="310" x2="850" y2="310" stroke="#e2e8f0" stroke-width="0.5"/>
  <text x="110" y="254" text-anchor="end" font-family="sans-serif" font-size="11" fill="#94a3b8">60%</text>
  <line x1="120" y1="250" x2="850" y2="250" stroke="#e2e8f0" stroke-width="0.5"/>
  <text x="110" y="194" text-anchor="end" font-family="sans-serif" font-size="11" fill="#94a3b8">90%</text>
  <line x1="120" y1="190" x2="850" y2="190" stroke="#e2e8f0" stroke-width="0.5"/>
  <text x="110" y="134" text-anchor="end" font-family="sans-serif" font-size="11" fill="#94a3b8">120%</text>
  <line x1="120" y1="130" x2="850" y2="130" stroke="#e2e8f0" stroke-width="0.5"/>
  <!-- Oszlopok -->
  <!-- Faanyag -->
  <rect x="170" y="170" width="80" height="200" rx="4" fill="#a16207" opacity="0.7"/>
  <text x="210" y="160" text-anchor="middle" font-family="sans-serif" font-size="14" font-weight="bold" fill="#a16207">+100%</text>
  <text x="210" y="395" text-anchor="middle" font-family="sans-serif" font-size="12" fill="#475569">Faanyag</text>
  <!-- Beton/cement -->
  <rect x="290" y="210" width="80" height="160" rx="4" fill="#94a3b8" opacity="0.7"/>
  <text x="330" y="200" text-anchor="middle" font-family="sans-serif" font-size="14" font-weight="bold" fill="#64748b">+80%</text>
  <text x="330" y="395" text-anchor="middle" font-family="sans-serif" font-size="12" fill="#475569">Beton</text>
  <!-- Betonacél -->
  <rect x="410" y="220" width="80" height="150" rx="4" fill="#6366f1" opacity="0.7"/>
  <text x="450" y="210" text-anchor="middle" font-family="sans-serif" font-size="14" font-weight="bold" fill="#6366f1">+75%</text>
  <text x="450" y="395" text-anchor="middle" font-family="sans-serif" font-size="12" fill="#475569">Acél</text>
  <!-- Tégla -->
  <rect x="530" y="240" width="80" height="130" rx="4" fill="#ef4444" opacity="0.7"/>
  <text x="570" y="230" text-anchor="middle" font-family="sans-serif" font-size="14" font-weight="bold" fill="#ef4444">+65%</text>
  <text x="570" y="395" text-anchor="middle" font-family="sans-serif" font-size="12" fill="#475569">Tégla</text>
  <!-- Ytong -->
  <rect x="650" y="250" width="80" height="120" rx="4" fill="#f59e0b" opacity="0.7"/>
  <text x="690" y="240" text-anchor="middle" font-family="sans-serif" font-size="14" font-weight="bold" fill="#f59e0b">+55%</text>
  <text x="690" y="395" text-anchor="middle" font-family="sans-serif" font-size="12" fill="#475569">Ytong</text>
  <!-- Szigetelés -->
  <rect x="770" y="270" width="80" height="100" rx="4" fill="#22c55e" opacity="0.7"/>
  <text x="810" y="260" text-anchor="middle" font-family="sans-serif" font-size="14" font-weight="bold" fill="#22c55e">+50%</text>
  <text x="810" y="395" text-anchor="middle" font-family="sans-serif" font-size="12" fill="#475569">Szigetelés</text>
  <!-- Megjegyzés -->
  <text x="450" y="435" text-anchor="middle" font-family="sans-serif" font-size="11" fill="#94a3b8">Forrás: KSH, ÉVOSZ, építőanyag-kereskedők összesített adatai | 2026 tavasz</text>
</svg>