<svg xmlns="http://www.w3.org/2000/svg" viewBox="0 0 900 500">
  <rect width="900" height="500" fill="#fafafa" rx="12"/>

  <text x="450" y="35" text-anchor="middle" font-family="sans-serif" font-size="18" font-weight="bold" fill="#333">Költségtúllépés okai – gyakorisági és hatás elemzés</text>
  <text x="450" y="55" text-anchor="middle" font-family="sans-serif" font-size="12" fill="#888">Forrás: ÉVOSZ 2024, KSH, hazepitesikalauz.hu összeállítás</text>

  <!-- Table header -->
  <rect x="30" y="75" width="840" height="40" rx="6" fill="#2c3e50"/>
  <text x="50" y="100" font-family="sans-serif" font-size="14" fill="white" font-weight="bold">Túllépés oka</text>
  <text x="380" y="100" text-anchor="middle" font-family="sans-serif" font-size="14" fill="white" font-weight="bold">Előfordulás</text>
  <text x="530" y="100" text-anchor="middle" font-family="sans-serif" font-size="14" fill="white" font-weight="bold">Átlagos hatás</text>
  <text x="720" y="100" text-anchor="middle" font-family="sans-serif" font-size="14" fill="white" font-weight="bold">Megelőzhető?</text>

  <!-- Row 1 -->
  <rect x="30" y="120" width="840" height="50" rx="0" fill="#fff" stroke="#eee" stroke-width="1"/>
  <text x="50" y="150" font-family="sans-serif" font-size="14" fill="#333">Hiányos költségvetés</text>
  <rect x="320" y="135" width="120" height="18" rx="4" fill="#e8e8e8"/>
  <rect x="320" y="135" width="96" height="18" rx="4" fill="#e74c3c"/>
  <text x="450" y="149" font-family="sans-serif" font-size="11" fill="#333">80%</text>
  <text x="530" y="150" text-anchor="middle" font-family="sans-serif" font-size="14" fill="#e74c3c" font-weight="bold">+3-8M Ft</text>
  <rect x="670" y="135" width="100" height="22" rx="4" fill="#27ae60"/>
  <text x="720" y="151" text-anchor="middle" font-family="sans-serif" font-size="12" fill="white">Igen</text>

  <!-- Row 2 -->
  <rect x="30" y="175" width="840" height="50" rx="0" fill="#f8f8f8" stroke="#eee" stroke-width="1"/>
  <text x="50" y="205" font-family="sans-serif" font-size="14" fill="#333">Tervmódosítás építés közben</text>
  <rect x="320" y="190" width="120" height="18" rx="4" fill="#e8e8e8"/>
  <rect x="320" y="190" width="78" height="18" rx="4" fill="#f39c12"/>
  <text x="450" y="204" font-family="sans-serif" font-size="11" fill="#333">65%</text>
  <text x="530" y="205" text-anchor="middle" font-family="sans-serif" font-size="14" fill="#f39c12" font-weight="bold">+2-5M Ft</text>
  <rect x="670" y="190" width="100" height="22" rx="4" fill="#27ae60"/>
  <text x="720" y="206" text-anchor="middle" font-family="sans-serif" font-size="12" fill="white">Igen</text>

  <!-- Row 3 -->
  <rect x="30" y="230" width="840" height="50" rx="0" fill="#fff" stroke="#eee" stroke-width="1"/>
  <text x="50" y="260" font-family="sans-serif" font-size="14" fill="#333">Anyagár-emelkedés</text>
  <rect x="320" y="245" width="120" height="18" rx="4" fill="#e8e8e8"/>
  <rect x="320" y="245" width="72" height="18" rx="4" fill="#3498db"/>
  <text x="450" y="259" font-family="sans-serif" font-size="11" fill="#333">60%</text>
  <text x="530" y="260" text-anchor="middle" font-family="sans-serif" font-size="14" fill="#3498db" font-weight="bold">+1,5-3M Ft</text>
  <rect x="670" y="245" width="100" height="22" rx="4" fill="#f39c12"/>
  <text x="720" y="261" text-anchor="middle" font-family="sans-serif" font-size="12" fill="white">Részben</text>

  <!-- Row 4 -->
  <rect x="30" y="285" width="840" height="50" rx="0" fill="#f8f8f8" stroke="#eee" stroke-width="1"/>
  <text x="50" y="315" font-family="sans-serif" font-size="14" fill="#333">Kivitelezői alulkalkulálás</text>
  <rect x="320" y="300" width="120" height="18" rx="4" fill="#e8e8e8"/>
  <rect x="320" y="300" width="60" height="18" rx="4" fill="#9b59b6"/>
  <text x="450" y="314" font-family="sans-serif" font-size="11" fill="#333">50%</text>
  <text x="530" y="315" text-anchor="middle" font-family="sans-serif" font-size="14" fill="#9b59b6" font-weight="bold">+2-4M Ft</text>
  <rect x="670" y="300" width="100" height="22" rx="4" fill="#27ae60"/>
  <text x="720" y="316" text-anchor="middle" font-family="sans-serif" font-size="12" fill="white">Igen</text>

  <!-- Row 5 -->
  <rect x="30" y="340" width="840" height="50" rx="0" fill="#fff" stroke="#eee" stroke-width="1"/>
  <text x="50" y="370" font-family="sans-serif" font-size="14" fill="#333">Talajprobléma, váratlan körülmény</text>
  <rect x="320" y="355" width="120" height="18" rx="4" fill="#e8e8e8"/>
  <rect x="320" y="355" width="36" height="18" rx="4" fill="#2ecc71"/>
  <text x="450" y="369" font-family="sans-serif" font-size="11" fill="#333">30%</text>
  <text x="530" y="370" text-anchor="middle" font-family="sans-serif" font-size="14" fill="#2ecc71" font-weight="bold">+1-3M Ft</text>
  <rect x="670" y="355" width="100" height="22" rx="4" fill="#f39c12"/>
  <text x="720" y="371" text-anchor="middle" font-family="sans-serif" font-size="12" fill="white">Részben</text>

  <!-- Row 6 -->
  <rect x="30" y="395" width="840" height="50" rx="0" fill="#f8f8f8" stroke="#eee" stroke-width="1"/>
  <text x="50" y="425" font-family="sans-serif" font-size="14" fill="#333">Csúszás miatti többletköltség</text>
  <rect x="320" y="410" width="120" height="18" rx="4" fill="#e8e8e8"/>
  <rect x="320" y="410" width="48" height="18" rx="4" fill="#e67e22"/>
  <text x="450" y="424" font-family="sans-serif" font-size="11" fill="#333">40%</text>
  <text x="530" y="425" text-anchor="middle" font-family="sans-serif" font-size="14" fill="#e67e22" font-weight="bold">+0,5-2M Ft</text>
  <rect x="670" y="410" width="100" height="22" rx="4" fill="#f39c12"/>
  <text x="720" y="426" text-anchor="middle" font-family="sans-serif" font-size="12" fill="white">Részben</text>

  <!-- Row 7 -->
  <rect x="30" y="450" width="840" height="50" rx="0" fill="#fff" stroke="#eee" stroke-width="1"/>
  <text x="50" y="480" font-family="sans-serif" font-size="14" fill="#333">„Egyszer élünk" felárválasztások</text>
  <rect x="320" y="465" width="120" height="18" rx="4" fill="#e8e8e8"/>
  <rect x="320" y="465" width="48" height="18" rx="4" fill="#1abc9c"/>
  <text x="450" y="479" font-family="sans-serif" font-size="11" fill="#333">40%</text>
  <text x="530" y="480" text-anchor="middle" font-family="sans-serif" font-size="14" fill="#1abc9c" font-weight="bold">+2-5M Ft</text>
  <rect x="670" y="465" width="100" height="22" rx="4" fill="#27ae60"/>
  <text x="720" y="481" text-anchor="middle" font-family="sans-serif" font-size="12" fill="white">Igen</text>
</svg>
