<svg xmlns="http://www.w3.org/2000/svg" viewBox="0 0 1200 630">
  <rect width="1200" height="630" fill="#0f172a"/>
  <rect x="0" y="0" width="1200" height="630" fill="url(#grad1)" opacity="0.6"/>
  <defs>
    <linearGradient id="grad1" x1="0%" y1="0%" x2="100%" y2="100%">
      <stop offset="0%" style="stop-color:#1e3a5f;stop-opacity:1"/>
      <stop offset="100%" style="stop-color:#0f172a;stop-opacity:1"/>
    </linearGradient>
  </defs>

  <!-- Grid háttér -->
  <g opacity="0.08" stroke="#60a5fa" stroke-width="1">
    <line x1="100" y1="100" x2="100" y2="530"/><line x1="200" y1="100" x2="200" y2="530"/>
    <line x1="300" y1="100" x2="300" y2="530"/><line x1="400" y1="100" x2="400" y2="530"/>
    <line x1="500" y1="100" x2="500" y2="530"/><line x1="600" y1="100" x2="600" y2="530"/>
    <line x1="700" y1="100" x2="700" y2="530"/><line x1="800" y1="100" x2="800" y2="530"/>
    <line x1="900" y1="100" x2="900" y2="530"/><line x1="1000" y1="100" x2="1000" y2="530"/>
    <line x1="1100" y1="100" x2="1100" y2="530"/>
    <line x1="100" y1="200" x2="1100" y2="200"/><line x1="100" y1="300" x2="1100" y2="300"/>
    <line x1="100" y1="400" x2="1100" y2="400"/><line x1="100" y1="500" x2="1100" y2="500"/>
  </g>

  <!-- Ár sávok -->
  <rect x="160" y="370" width="200" height="130" rx="8" fill="#3b82f6" opacity="0.25"/>
  <rect x="160" y="420" width="200" height="80" rx="0" fill="#3b82f6" opacity="0.5"/>
  <text x="260" y="460" text-anchor="middle" font-family="system-ui,sans-serif" font-size="16" fill="#93c5fd" font-weight="600">250-450e</text>
  <text x="260" y="480" text-anchor="middle" font-family="system-ui,sans-serif" font-size="12" fill="#60a5fa">Szerkezetkész</text>

  <rect x="420" y="290" width="200" height="210" rx="8" fill="#6366f1" opacity="0.25"/>
  <rect x="420" y="350" width="200" height="150" rx="0" fill="#6366f1" opacity="0.5"/>
  <text x="520" y="430" text-anchor="middle" font-family="system-ui,sans-serif" font-size="16" fill="#a5b4fc" font-weight="600">420-680e</text>
  <text x="520" y="450" text-anchor="middle" font-family="system-ui,sans-serif" font-size="12" fill="#818cf8">Kulcsrakész</text>

  <rect x="680" y="220" width="200" height="280" rx="8" fill="#8b5cf6" opacity="0.25"/>
  <rect x="680" y="280" width="200" height="220" rx="0" fill="#8b5cf6" opacity="0.5"/>
  <text x="780" y="395" text-anchor="middle" font-family="system-ui,sans-serif" font-size="16" fill="#c4b5fd" font-weight="600">600-950e</text>
  <text x="780" y="415" text-anchor="middle" font-family="system-ui,sans-serif" font-size="12" fill="#a78bfa">Prémium</text>

  <!-- Mértékegység -->
  <text x="520" y="540" text-anchor="middle" font-family="system-ui,sans-serif" font-size="14" fill="#64748b">Ft/m²</text>

  <!-- Cím -->
  <text x="600" y="100" text-anchor="middle" font-family="system-ui,sans-serif" font-size="42" font-weight="800" fill="#f1f5f9">Négyzetméter árak 2026</text>
  <text x="600" y="145" text-anchor="middle" font-family="system-ui,sans-serif" font-size="22" fill="#94a3b8">Mit mutatnak a számok – és mit nem</text>

  <!-- Brand -->
  <text x="600" y="605" text-anchor="middle" font-family="system-ui,sans-serif" font-size="16" fill="#475569">hazepitesikalauz.hu</text>
</svg>
