<svg xmlns="http://www.w3.org/2000/svg" viewBox="0 0 1200 630">
  <defs>
    <linearGradient id="bg8" x1="0%" y1="0%" x2="100%" y2="100%">
      <stop offset="0%" style="stop-color:#1e3a5f"/>
      <stop offset="100%" style="stop-color:#0c1929"/>
    </linearGradient>
  </defs>
  <rect width="1200" height="630" fill="url(#bg8)"/>
  <!-- Háttér rács -->
  <g opacity="0.04" stroke="#fff" stroke-width="1">
    <line x1="0" y1="80" x2="1200" y2="80"/>
    <line x1="0" y1="180" x2="1200" y2="180"/>
    <line x1="0" y1="280" x2="1200" y2="280"/>
    <line x1="200" y1="0" x2="200" y2="630"/>
    <line x1="400" y1="0" x2="400" y2="630"/>
    <line x1="600" y1="0" x2="600" y2="630"/>
    <line x1="800" y1="0" x2="800" y2="630"/>
    <line x1="1000" y1="0" x2="1000" y2="630"/>
  </g>
  <!-- Ház kontúr -->
  <g transform="translate(400,180)">
    <rect x="0" y="30" width="160" height="120" fill="none" stroke="#475569" stroke-width="2" rx="3"/>
    <polygon points="-15,30 80,-30 175,30" fill="none" stroke="#475569" stroke-width="2"/>
    <!-- Ajtó -->
    <rect x="60" y="90" width="40" height="60" fill="none" stroke="#475569" stroke-width="1.5" rx="2"/>
    <!-- Ablakok -->
    <rect x="15" y="55" width="35" height="30" fill="none" stroke="#475569" stroke-width="1.5" rx="2"/>
    <rect x="110" y="55" width="35" height="30" fill="none" stroke="#475569" stroke-width="1.5" rx="2"/>
  </g>
  <!-- ME személy ikon (nagyítóval) -->
  <g transform="translate(750,160)">
    <!-- Személy -->
    <circle cx="0" cy="0" r="30" fill="none" stroke="#22c55e" stroke-width="2.5"/>
    <circle cx="0" cy="-8" r="10" fill="none" stroke="#22c55e" stroke-width="2"/>
    <path d="M-18,15 Q0,30 18,15" fill="none" stroke="#22c55e" stroke-width="2"/>
    <!-- Nagyító -->
    <circle cx="40" cy="-20" r="16" fill="none" stroke="#f59e0b" stroke-width="2.5"/>
    <line x1="52" y1="-8" x2="62" y2="4" stroke="#f59e0b" stroke-width="2.5" stroke-linecap="round"/>
    <!-- Pipa a nagyítóban -->
    <polyline points="33,-22 38,-16 48,-26" fill="none" stroke="#22c55e" stroke-width="2" stroke-linecap="round"/>
  </g>
  <!-- Nyíl háztól ME-hoz -->
  <line x1="570" y1="220" x2="700" y2="180" stroke="#334155" stroke-width="1.5" stroke-dasharray="6,4"/>
  <!-- Checklist szimbólum -->
  <g transform="translate(850,240)">
    <rect x="0" y="0" width="100" height="80" rx="6" fill="none" stroke="#475569" stroke-width="1.5"/>
    <g transform="translate(15,15)">
      <rect x="0" y="0" width="12" height="12" rx="2" fill="none" stroke="#22c55e" stroke-width="1.5"/>
      <polyline points="2,6 5,10 10,2" fill="none" stroke="#22c55e" stroke-width="1.5"/>
      <line x1="20" y1="6" x2="70" y2="6" stroke="#475569" stroke-width="1"/>
    </g>
    <g transform="translate(15,35)">
      <rect x="0" y="0" width="12" height="12" rx="2" fill="none" stroke="#22c55e" stroke-width="1.5"/>
      <polyline points="2,6 5,10 10,2" fill="none" stroke="#22c55e" stroke-width="1.5"/>
      <line x1="20" y1="6" x2="70" y2="6" stroke="#475569" stroke-width="1"/>
    </g>
    <g transform="translate(15,55)">
      <rect x="0" y="0" width="12" height="12" rx="2" fill="none" stroke="#f59e0b" stroke-width="1.5"/>
      <line x1="20" y1="6" x2="70" y2="6" stroke="#475569" stroke-width="1"/>
    </g>
  </g>
  <!-- Cím -->
  <text x="600" y="410" text-anchor="middle" font-family="sans-serif" font-size="42" font-weight="bold" fill="#ffffff">Műszaki ellenőr 2026</text>
  <text x="600" y="455" text-anchor="middle" font-family="sans-serif" font-size="22" fill="#94a3b8">díjak · feladatok · kiválasztás · szerződés</text>
  <!-- Statisztikák -->
  <g transform="translate(250,510)">
    <text x="0" y="0" text-anchor="middle" font-family="sans-serif" font-size="22" font-weight="bold" fill="#22c55e">1-3%</text>
    <text x="0" y="22" text-anchor="middle" font-family="sans-serif" font-size="12" fill="#78716c">építési költség</text>
  </g>
  <g transform="translate(500,510)">
    <text x="0" y="0" text-anchor="middle" font-family="sans-serif" font-size="22" font-weight="bold" fill="#f59e0b">3,8M Ft</text>
    <text x="0" y="22" text-anchor="middle" font-family="sans-serif" font-size="12" fill="#78716c">átlag megtakarítás</text>
  </g>
  <g transform="translate(750,510)">
    <text x="0" y="0" text-anchor="middle" font-family="sans-serif" font-size="22" font-weight="bold" fill="#3b82f6">450-750e</text>
    <text x="0" y="22" text-anchor="middle" font-family="sans-serif" font-size="12" fill="#78716c">teljes ME díj</text>
  </g>
  <g transform="translate(950,510)">
    <text x="0" y="0" text-anchor="middle" font-family="sans-serif" font-size="22" font-weight="bold" fill="#ef4444">7-8×</text>
    <text x="0" y="22" text-anchor="middle" font-family="sans-serif" font-size="12" fill="#78716c">megtérülés</text>
  </g>
  <!-- Brand -->
  <text x="600" y="590" text-anchor="middle" font-family="sans-serif" font-size="18" fill="#57534e">hazepitesikalauz.hu</text>
</svg>